{
  "accessors": [
    {
      "bufferView": 2,
      "componentType": 5126,
      "count": 16310,
      "max": [
        1.76808762550354,
        1.7136222124099731,
        0.7232950925827026
      ],
      "min": [
        -1.76808762550354,
        -1.0441151857376099,
        -1.5835609436035156
      ],
      "type": "VEC3"
    },
    {
      "bufferView": 2,
      "byteOffset": 195720,
      "componentType": 5126,
      "count": 16310,
      "max": [
        1.0,
        1.0,
        1.0
      ],
      "min": [
        -1.0,
        -1.0,
        -1.0
      ],
      "type": "VEC3"
    },
    {
      "bufferView": 1,
      "componentType": 5126,
      "count": 16310,
      "max": [
        1.0,
        0.9900000095367432
      ],
      "min": [
        -1.862645149230957e-07,
        0.0
      ],
      "type": "VEC2"
    },
    {
      "bufferView": 0,
      "componentType": 5125,
      "count": 25056,
      "type": "SCALAR"
    },
    {
      "bufferView": 2,
      "byteOffset": 391440,
      "componentType": 5126,
      "count": 2056,
      "max": [
        1.76808762550354,
        1.8310965299606323,
        0.7038813233375549
      ],
      "min": [
        -1.76808762550354,
        -0.5974835753440857,
        -1.5835609436035156
      ],
      "type": "VEC3"
    },
    {
      "bufferView": 2,
      "byteOffset": 416112,
      "componentType": 5126,
      "count": 2056,
      "max": [
        1.0,
        1.0,
        1.0
      ],
      "min": [
        -1.0,
        -1.0,
        -1.0
      ],
      "type": "VEC3"
    },
    {
      "bufferView": 1,
      "byteOffset": 130480,
      "componentType": 5126,
      "count": 2056,
      "max": [
        1.0,
        0.9899216890335083
      ],
      "min": [
        8.344650268554688e-07,
        0.0
      ],
      "type": "VEC2"
    },
    {
      "bufferView": 0,
      "byteOffset": 100224,
      "componentType": 5125,
      "count": 4728,
      "type": "SCALAR"
    },
    {
      "bufferView": 2,
      "byteOffset": 440784,
      "componentType": 5126,
      "count": 42,
      "max": [
        1.1826872825622559,
        1.689101219177246,
        -0.0
      ],
      "min": [
        -1.1826872825622559,
        0.46428462862968445,
        -1.4053765535354614
      ],
      "type": "VEC3"
    },
    {
      "bufferView": 2,
      "byteOffset": 441288,
      "componentType": 5126,
      "count": 42,
      "max": [
        0.9690826535224915,
        0.25165855884552,
        0.9797021746635437
      ],
      "min": [
        -0.9690826535224915,
        0.20029020309448242,
        -0.9739112854003906
      ],
      "type": "VEC3"
    },
    {
      "bufferView": 1,
      "byteOffset": 146928,
      "componentType": 5126,
      "count": 42,
      "max": [
        0.8750000596046448,
        0.75
      ],
      "min": [
        0.625,
        0.375
      ],
      "type": "VEC2"
    },
    {
      "bufferView": 0,
      "byteOffset": 119136,
      "componentType": 5125,
      "count": 66,
      "type": "SCALAR"
    },
    {
      "bufferView": 2,
      "byteOffset": 441792,
      "componentType": 5126,
      "count": 8,
      "max": [
        1.121829867362976,
        0.0436619371175766,
        0.7232950925827026
      ],
      "min": [
        -1.121829867362976,
        -0.12814362347126007,
        0.7232950925827026
      ],
      "type": "VEC3"
    },
    {
      "bufferView": 2,
      "byteOffset": 441888,
      "componentType": 5126,
      "count": 8,
      "max": [
        0.0,
        2.5143160087282013e-07,
        -1.0
      ],
      "min": [
        0.0,
        2.5143160087282013e-07,
        -1.0
      ],
      "type": "VEC3"
    },
    {
      "bufferView": 1,
      "byteOffset": 147264,
      "componentType": 5126,
      "count": 8,
      "max": [
        0.6148907542228699,
        0.23015540838241577
      ],
      "min": [
        0.375,
        0.0
      ],
      "type": "VEC2"
    },
    {
      "bufferView": 0,
      "byteOffset": 119400,
      "componentType": 5125,
      "count": 12,
      "type": "SCALAR"
    },
    {
      "bufferView": 2,
      "byteOffset": 441984,
      "componentType": 5126,
      "count": 46,
      "max": [
        1.2665414810180664,
        0.1349957287311554,
        -0.06735236942768097
      ],
      "min": [
        -1.2665414810180664,
        -0.5930554866790771,
        -0.9613854885101318
      ],
      "type": "VEC3"
    },
    {
      "bufferView": 2,
      "byteOffset": 442536,
      "componentType": 5126,
      "count": 46,
      "max": [
        0.9994480013847351,
        0.853899359703064,
        0.7559711337089539
      ],
      "min": [
        -0.9994478225708008,
        -0.9999995827674866,
        -1.0
      ],
      "type": "VEC3"
    },
    {
      "bufferView": 1,
      "byteOffset": 147328,
      "componentType": 5126,
      "count": 46,
      "max": [
        0.507856011390686,
        0.5
      ],
      "min": [
        0.14634227752685547,
        0.14088749885559082
      ],
      "type": "VEC2"
    },
    {
      "bufferView": 0,
      "byteOffset": 119448,
      "componentType": 5125,
      "count": 102,
      "type": "SCALAR"
    }
  ],
  "asset": {
    "extras": {
      "author": "Miyen135 (https://sketchfab.com/blenderAA)",
      "license": "CC-BY-4.0 (http://creativecommons.org/licenses/by/4.0/)",
      "source": "https://sketchfab.com/3d-models/good-car-for-mama-effc0d98fd164da5bdb67b4d7e7b5b97",
      "title": "Good Car For Mama"
    },
    "generator": "Sketchfab-15.38.0",
    "version": "2.0"
  },
  "bufferViews": [
    {
      "buffer": 0,
      "byteLength": 119856,
      "name": "floatBufferViews",
      "target": 34963
    },
    {
      "buffer": 0,
      "byteLength": 147696,
      "byteOffset": 119856,
      "byteStride": 8,
      "name": "floatBufferViews",
      "target": 34962
    },
    {
      "buffer": 0,
      "byteLength": 443088,
      "byteOffset": 267552,
      "byteStride": 12,
      "name": "floatBufferViews",
      "target": 34962
    }
  ],
  "buffers": [
    {
      "byteLength": 710640,
      "uri": "scene.bin"
    }
  ],
  "extensionsUsed": [
    "KHR_materials_specular"
  ],
  "materials": [
    {
      "doubleSided": true,
      "name": "Material",
      "pbrMetallicRoughness": {
        "baseColorFactor": [
          0.0,
          0.0,
          0.0,
          1.0
        ],
        "metallicFactor": 0.0,
        "roughnessFactor": 0.5
      }
    },
    {
      "doubleSided": true,
      "extensions": {
        "KHR_materials_specular": {
          "specularColorFactor": [
            1.0,
            1.0,
            1.0
          ],
          "specularFactor": 1.0
        }
      },
      "name": "Material.001",
      "pbrMetallicRoughness": {
        "baseColorFactor": [
          0.8,
          0.0152998,
          0.0,
          1.0
        ],
        "metallicFactor": 0.0,
        "roughnessFactor": 0.0
      }
    },
    {
      "doubleSided": true,
      "extensions": {
        "KHR_materials_specular": {
          "specularColorFactor": [
            1.0,
            1.0,
            1.0
          ],
          "specularFactor": 1.0
        }
      },
      "name": "Material.002",
      "pbrMetallicRoughness": {
        "baseColorFactor": [
          0.8,
          0.8,
          0.8,
          1.0
        ],
        "metallicFactor": 0.0,
        "roughnessFactor": 0.0
      }
    },
    {
      "doubleSided": true,
      "name": "Material.003",
      "pbrMetallicRoughness": {
        "baseColorFactor": [
          0.8,
          0.415692,
          0.0,
          1.0
        ],
        "metallicFactor": 0.0,
        "roughnessFactor": 0.5
      }
    },
    {
      "doubleSided": true,
      "name": "Material.004",
      "pbrMetallicRoughness": {
        "baseColorFactor": [
          0.0451841,
          0.0451841,
          0.0451841,
          1.0
        ],
        "metallicFactor": 0.0,
        "roughnessFactor": 0.5
      }
    }
  ],
  "meshes": [
    {
      "name": "Object_0",
      "primitives": [
        {
          "attributes": {
            "NORMAL": 1,
            "POSITION": 0,
            "TEXCOORD_0": 2
          },
          "indices": 3,
          "material": 0,
          "mode": 4
        }
      ]
    },
    {
      "name": "Object_1",
      "primitives": [
        {
          "attributes": {
            "NORMAL": 5,
            "POSITION": 4,
            "TEXCOORD_0": 6
          },
          "indices": 7,
          "material": 1,
          "mode": 4
        }
      ]
    },
    {
      "name": "Object_2",
      "primitives": [
        {
          "attributes": {
            "NORMAL": 9,
            "POSITION": 8,
            "TEXCOORD_0": 10
          },
          "indices": 11,
          "material": 2,
          "mode": 4
        }
      ]
    },
    {
      "name": "Object_3",
      "primitives": [
        {
          "attributes": {
            "NORMAL": 13,
            "POSITION": 12,
            "TEXCOORD_0": 14
          },
          "indices": 15,
          "material": 3,
          "mode": 4
        }
      ]
    },
    {
      "name": "Object_4",
      "primitives": [
        {
          "attributes": {
            "NORMAL": 17,
            "POSITION": 16,
            "TEXCOORD_0": 18
          },
          "indices": 19,
          "material": 4,
          "mode": 4
        }
      ]
    }
  ],
  "nodes": [
    {
      "children": [
        1
      ],
      "matrix": [
        0.564123272895813,
        0.0,
        0.0,
        0.0,
        0.0,
        1.2526052925916642e-16,
        -0.564123272895813,
        0.0,
        0.0,
        0.564123272895813,
        1.2526052925916642e-16,
        0.0,
        0.0,
        0.0,
        0.0,
        1.0
      ],
      "name": "Sketchfab_model"
    },
    {
      "children": [
        2
      ],
      "name": "root"
    },
    {
      "children": [
        3
      ],
      "matrix": [
        1.0,
        0.0,
        0.0,
        0.0,
        0.0,
        2.220446049250313e-16,
        1.0,
        0.0,
        0.0,
        -1.0,
        2.220446049250313e-16,
        0.0,
        0.0,
        0.0,
        0.0,
        1.0
      ],
      "name": "GLTF_SceneRootNode"
    },
    {
      "children": [
        4,
        5,
        6,
        7,
        8
      ],
      "matrix": [
        1.0,
        0.0,
        0.0,
        0.0,
        0.0,
        1.0,
        0.0,
        0.0,
        0.0,
        0.0,
        2.7782766819000244,
        0.0,
        0.0,
        0.0,
        0.0,
        1.0
      ],
      "name": "Cube_0"
    },
    {
      "mesh": 0,
      "name": "Object_4"
    },
    {
      "mesh": 1,
      "name": "Object_5"
    },
    {
      "mesh": 2,
      "name": "Object_6"
    },
    {
      "mesh": 3,
      "name": "Object_7"
    },
    {
      "mesh": 4,
      "name": "Object_8"
    }
  ],
  "scene": 0,
  "scenes": [
    {
      "name": "Sketchfab_Scene",
      "nodes": [
        0
      ]
    }
  ]
}
